<svg 
          width="16.875" 
          height="1.6875" fill="none" 
          xmlns="http://www.w3.org/2000/svg">
          <path d="M 16.03125 1.6875 L 0.84375 1.6875 C 0.61997358687222 1.6874999999999991 0.4053624998778105 1.5986052732914686 0.2471286803483963 1.4403714537620544 C 0.08889486081898212 1.2821376342326403 2.498001805406602e-16 1.06752641312778 0 0.84375 C 1.249000902703301e-16 0.61997358687222 0.08889486081898212 0.40536236576735973 0.2471286803483963 0.24712854623794556 C 0.4053624998778105 0.08889472670853138 0.61997358687222 4.996003610813204e-16 0.84375 0 L 16.03125 0 C 16.25502641312778 0 16.469637097790837 0.08889472670853138 16.62787091732025 0.24712854623794556 C 16.786104736849666 0.40536236576735973 16.875 0.61997358687222 16.875 0.84375 C 16.875 1.06752641312778 16.786104736849666 1.2821376342326403 16.62787091732025 1.4403714537620544 C 16.469637097790837 1.5986052732914686 16.25502641312778 1.6874999999999991 16.03125 1.6875 L 16.03125 1.6875 Z" fill="rgb(158.31250101327896,158.31250101327896,158.31250101327896)"/>
        </svg>